<?xml version="1.0" encoding="utf-8"?>
<!-- Generator: Adobe Illustrator 23.0.4, SVG Export Plug-In . SVG Version: 6.00 Build 0)  -->
<svg version="1.1" id="Layer_1" xmlns="http://www.w3.org/2000/svg" xmlns:xlink="http://www.w3.org/1999/xlink" x="0px" y="0px"
	 viewBox="0 0 230 30" style="enable-background:new 0 0 230 30;" xml:space="preserve">
<style type="text/css">
	.st0{fill:#FFFFFF;}
</style>
<g>
	<path class="st0" d="M0,7.2h2.41c1.93,0,3.01,0.24,3.85,0.82c1.08,0.75,1.83,2.24,1.83,3.68c0,1.18-0.41,2.1-1.3,2.91
		c1.69,0.58,2.74,2.14,2.74,4.05c0,1.35-0.58,2.58-1.61,3.44c-1.06,0.87-2.07,1.16-4.24,1.16H0V7.2z M3.18,14.11
		c0.96,0,1.54-0.17,1.95-0.58c0.41-0.41,0.67-1.13,0.67-1.81c0-0.65-0.27-1.32-0.67-1.71C4.74,9.63,4.14,9.44,3.27,9.44H2.43v4.67
		H3.18z M3.92,20.97c1.06,0,1.71-0.14,2.24-0.51c0.58-0.38,0.99-1.16,0.99-1.9c0-0.72-0.38-1.49-0.99-1.9
		c-0.55-0.39-1.25-0.53-2.5-0.53H2.43v4.84H3.92z"/>
	<path class="st0" d="M32.62,23.26h-2.96l-4.57-6.57h-0.43v6.57h-2.43V7.2h2.84c2.07,0,3.23,0.27,4.24,0.94
		c1.18,0.79,1.93,2.24,1.93,3.78c0,2.26-1.42,4.04-3.56,4.5L32.62,23.26z M25.42,14.57c1.08,0,1.88-0.17,2.43-0.55
		c0.63-0.46,1.01-1.23,1.01-2.07c0-0.77-0.36-1.49-0.94-1.9c-0.58-0.39-1.28-0.55-2.41-0.55h-0.87v5.08H25.42z"/>
	<path class="st0" d="M47.09,23.26h-2.43V7.2h2.43V23.26z"/>
	<path class="st0" d="M75.47,14.9v0.75c0,2.1-0.43,3.54-1.42,4.89c-1.4,1.9-3.68,3.03-6.09,3.03c-4.5,0-8.19-3.73-8.19-8.31
		c0-4.67,3.71-8.38,8.38-8.38c1.76,0,3.44,0.55,4.82,1.56c0.6,0.43,1.04,0.84,1.78,1.71l-1.73,1.66c-1.37-1.83-2.87-2.65-4.81-2.65
		c-3.4,0-5.99,2.65-5.99,6.09c0,1.78,0.65,3.27,1.93,4.41c1.13,1.04,2.55,1.61,3.9,1.61c2.41,0,4.57-1.83,4.79-4.09h-4V14.9H75.47z"
		/>
	<path class="st0" d="M97.69,13.48V7.2h2.43v16.06h-2.43v-7.49h-6.91v7.49h-2.43V7.2h2.43v6.28H97.69z"/>
	<path class="st0" d="M118.03,23.26h-2.43V9.49h-3.68V7.2h9.8v2.29h-3.68V23.26z"/>
	<path class="st0" d="M143.91,23.26h-2.96l-4.57-6.57h-0.43v6.57h-2.43V7.2h2.84c2.07,0,3.23,0.27,4.24,0.94
		c1.18,0.79,1.93,2.24,1.93,3.78c0,2.26-1.42,4.04-3.56,4.5L143.91,23.26z M136.71,14.57c1.08,0,1.88-0.17,2.43-0.55
		c0.63-0.46,1.01-1.23,1.01-2.07c0-0.77-0.36-1.49-0.94-1.9c-0.58-0.39-1.28-0.55-2.41-0.55h-0.87v5.08H136.71z"/>
	<path class="st0" d="M171.62,15.24c0,4.62-3.78,8.33-8.47,8.33c-2.31,0-4.7-1.08-6.28-2.84c-1.35-1.49-2.02-3.37-2.02-5.56
		c0-4.53,3.83-8.28,8.43-8.28C167.87,6.89,171.62,10.64,171.62,15.24z M157.27,15.19c0,1.81,0.58,3.23,1.78,4.38
		c1.13,1.08,2.65,1.71,4.12,1.71c3.4,0,6.02-2.65,6.02-6.04c0-3.42-2.58-6.07-5.95-6.07C159.92,9.17,157.27,11.82,157.27,15.19z"/>
	<path class="st0" d="M200.27,15.24c0,4.62-3.78,8.33-8.47,8.33c-2.31,0-4.7-1.08-6.28-2.84c-1.35-1.49-2.02-3.37-2.02-5.56
		c0-4.53,3.83-8.28,8.43-8.28C196.51,6.89,200.27,10.64,200.27,15.24z M185.92,15.19c0,1.81,0.58,3.23,1.78,4.38
		c1.13,1.08,2.65,1.71,4.12,1.71c3.4,0,6.02-2.65,6.02-6.04c0-3.42-2.58-6.07-5.95-6.07C188.57,9.17,185.92,11.82,185.92,15.19z"/>
	<path class="st0" d="M215.75,6l5.51,12.47L226.97,6L230,23.26h-2.48l-1.54-9.68L221.24,24l-4.62-10.45l-1.73,9.7h-2.5L215.75,6z"/>
</g>
</svg>
