<?xml version="1.0" encoding="utf-8"?>
<!-- Generator: Adobe Illustrator 23.0.4, SVG Export Plug-In . SVG Version: 6.00 Build 0)  -->
<svg version="1.1" id="Layer_1" xmlns="http://www.w3.org/2000/svg" xmlns:xlink="http://www.w3.org/1999/xlink" x="0px" y="0px"
	 viewBox="0 0 195 316" style="enable-background:new 0 0 195 316;" xml:space="preserve">
<style type="text/css">
	.st0{opacity:0.25;}
	.st1{fill:#002EFF;}
	.st2{fill:#FF00FF;}
</style>
<g>
	<g class="st0">
		<g>
			<rect x="188.48" class="st1" width="6.52" height="208.73"/>
		</g>
		<g>
			<rect x="171.9" class="st1" width="6.52" height="208.73"/>
		</g>
		<g>
			<rect x="155.31" class="st1" width="6.52" height="208.73"/>
		</g>
		<g>
			<rect x="138.73" class="st1" width="6.52" height="208.73"/>
		</g>
		<g>
			<rect x="122.14" class="st1" width="6.52" height="208.73"/>
		</g>
		<g>
			<rect x="105.56" class="st1" width="6.52" height="208.73"/>
		</g>
		<g>
			<rect x="88.98" class="st1" width="6.52" height="208.73"/>
		</g>
	</g>
	<g class="st0">
		<g>
			<path class="st2" d="M48.1,138.01c-0.87-0.85-2.26-0.84-3.12,0.02c-0.85,0.87-0.84,2.26,0.02,3.12l24.18,23.82
				c0.43,0.42,0.99,0.63,1.55,0.63c0.57,0,1.14-0.22,1.57-0.66c0.85-0.87,0.84-2.26-0.02-3.12L48.1,138.01z"/>
		</g>
		<g>
			<path class="st2" d="M34.67,138.01c-0.87-0.85-2.26-0.84-3.12,0.02c-0.85,0.87-0.84,2.26,0.02,3.12l37.6,37.05
				c0.43,0.42,0.99,0.63,1.55,0.63c0.57,0,1.14-0.22,1.57-0.66c0.85-0.87,0.84-2.26-0.02-3.12L34.67,138.01z"/>
		</g>
		<g>
			<path class="st2" d="M7.83,138.01c-0.87-0.85-2.26-0.84-3.12,0.02c-0.85,0.87-0.84,2.26,0.02,3.12l64.45,63.5
				c0.43,0.42,0.99,0.63,1.55,0.63c0.57,0,1.14-0.22,1.57-0.66c0.85-0.87,0.84-2.26-0.02-3.12L7.83,138.01z"/>
		</g>
		<g>
			<path class="st2" d="M21.25,138.01c-0.87-0.85-2.26-0.84-3.12,0.02c-0.85,0.87-0.84,2.26,0.02,3.12l51.03,50.27
				c0.43,0.42,0.99,0.63,1.55,0.63c0.57,0,1.14-0.22,1.57-0.66c0.85-0.87,0.84-2.26-0.02-3.12L21.25,138.01z"/>
		</g>
		<g>
			<path class="st2" d="M69.18,151.75c0.43,0.42,0.99,0.63,1.55,0.63c0.57,0,1.14-0.22,1.57-0.66c0.85-0.87,0.84-2.26-0.02-3.11
				l-10.76-10.6c-0.87-0.85-2.26-0.84-3.12,0.02c-0.85,0.87-0.84,2.26,0.02,3.12L69.18,151.75z"/>
		</g>
		<g>
			<path class="st2" d="M5.44,162.11c-0.87-0.85-2.26-0.84-3.12,0.02c-0.85,0.87-0.84,2.26,0.02,3.12l43.39,42.75
				c0.43,0.42,0.99,0.63,1.55,0.63c0.57,0,1.14-0.22,1.57-0.66c0.85-0.87,0.84-2.26-0.02-3.12L5.44,162.11z"/>
		</g>
		<g>
			<path class="st2" d="M5.44,148.88c-0.87-0.85-2.26-0.84-3.12,0.02c-0.85,0.87-0.84,2.26,0.02,3.12l56.81,55.97
				c0.43,0.42,0.99,0.63,1.55,0.63c0.57,0,1.14-0.22,1.57-0.66c0.85-0.87,0.84-2.26-0.02-3.12L5.44,148.88z"/>
		</g>
		<g>
			<path class="st2" d="M5.44,188.55c-0.87-0.85-2.26-0.84-3.12,0.02c-0.85,0.87-0.84,2.26,0.02,3.12l16.54,16.3
				c0.43,0.42,0.99,0.63,1.55,0.63c0.57,0,1.14-0.22,1.57-0.66c0.85-0.87,0.84-2.26-0.02-3.12L5.44,188.55z"/>
		</g>
		<g>
			<path class="st2" d="M5.44,175.33c-0.87-0.85-2.26-0.84-3.12,0.02c-0.85,0.87-0.84,2.26,0.02,3.12l29.97,29.53
				c0.43,0.42,0.99,0.63,1.55,0.63c0.57,0,1.14-0.22,1.57-0.66c0.85-0.87,0.84-2.26-0.02-3.12L5.44,175.33z"/>
		</g>
		<g>
			<path class="st2" d="M5.44,200.74c-0.87-0.85-2.26-0.84-3.12,0.02c-0.85,0.87-0.84,2.26,0.02,3.12l4.28,4.22
				c0.43,0.42,0.99,0.63,1.55,0.63c0.57,0,1.14-0.22,1.57-0.66c0.85-0.87,0.84-2.26-0.02-3.12L5.44,200.74z"/>
		</g>
	</g>
	<g class="st0">
		<path class="st1" d="M147.94,242.18c13.02,0,23.62,10.59,23.62,23.62s-10.59,23.62-23.62,23.62c-13.02,0-23.62-10.59-23.62-23.62
			S134.91,242.18,147.94,242.18 M147.94,218.73c-25.99,0-47.06,21.07-47.06,47.06c0,25.99,21.07,47.06,47.06,47.06
			c25.99,0,47.06-21.07,47.06-47.06C195,239.8,173.93,218.73,147.94,218.73L147.94,218.73z"/>
	</g>
</g>
</svg>